<svg width="19" height="21" viewBox="0 0 19 21" fill="none" xmlns="http://www.w3.org/2000/svg">
<path d="M13.5 10C16.5376 10 19 12.4624 19 15.5C19 18.5376 16.5376 21 13.5 21C10.4624 21 8 18.5376 8 15.5C8 12.4624 10.4624 10 13.5 10ZM1.5028 2.62704L1.5 4.75V15.2542C1.5 17.0491 2.95507 18.5042 4.75 18.5042L7.7348 18.5051C8.0227 19.0561 8.3872 19.5608 8.8142 20.0048L4.75 20.0042C2.12665 20.0042 0 17.8776 0 15.2542V4.75C0 3.76929 0.62745 2.93512 1.5028 2.62704ZM14.2843 12.5886C14.1138 12.4705 13.8862 12.4705 13.7157 12.5886L13.6464 12.6464L13.5886 12.7157C13.4705 12.8862 13.4705 13.1138 13.5886 13.2843L13.6464 13.3536L15.2917 14.999L10.4937 15L10.4038 15.0081C10.1997 15.0451 10.0388 15.206 10.0018 15.4101L9.9937 15.5L10.0018 15.5899C10.0388 15.794 10.1997 15.9549 10.4038 15.9919L10.4937 16L15.2937 15.999L13.6464 17.6464L13.5886 17.7157C13.4536 17.9106 13.4729 18.18 13.6464 18.3536C13.82 18.5271 14.0894 18.5464 14.2843 18.4114L14.3536 18.3536L16.8832 15.8212L16.9202 15.7711L16.9622 15.691L16.9882 15.6083L16.9981 15.5444V15.4557L16.9883 15.392L16.9767 15.3488L16.9445 15.2708L16.9205 15.2293L16.8832 15.1788L14.3536 12.6464L14.2843 12.5886ZM13.75 0C14.9926 0 16 1.00736 16 2.25L16.0006 9.4984C15.5265 9.3007 15.024 9.1574 14.5009 9.0766L14.5 2.25C14.5 1.83579 14.1642 1.5 13.75 1.5H4.75C4.33579 1.5 4 1.83579 4 2.25V15.25C4 15.6642 4.33579 16 4.75 16L7.019 16.0003C7.0585 16.5198 7.1591 17.0222 7.3136 17.5004L4.75 17.5C3.50736 17.5 2.5 16.4926 2.5 15.25V2.25C2.5 1.00736 3.50736 0 4.75 0H13.75Z" fill="#55606A"/>
</svg>
