<svg width="20" height="12" viewBox="0 0 20 12" fill="none" xmlns="http://www.w3.org/2000/svg">
<path d="M10.0004 3.50462C12.2095 3.50462 14.0004 5.2955 14.0004 7.5046C14.0004 9.7138 12.2095 11.5046 10.0004 11.5046C7.79121 11.5046 6.00036 9.7138 6.00036 7.5046C6.00036 5.2955 7.79121 3.50462 10.0004 3.50462ZM10.0004 5.0046C8.61969 5.0046 7.50036 6.1239 7.50036 7.5046C7.50036 8.8853 8.61969 10.0046 10.0004 10.0046C11.3811 10.0046 12.5004 8.8853 12.5004 7.5046C12.5004 6.1239 11.3811 5.0046 10.0004 5.0046ZM10.0004 0C14.6139 0 18.5965 3.15001 19.7015 7.5644C19.8021 7.9662 19.5579 8.3735 19.1561 8.4741C18.7542 8.5746 18.347 8.3305 18.2464 7.9286C17.3075 4.17796 13.9217 1.5 10.0004 1.5C6.0773 1.5 2.69046 4.18026 1.75322 7.9332C1.65286 8.335 1.24572 8.5794 0.843845 8.4791C0.441975 8.3787 0.197555 7.9716 0.297915 7.5697C1.40101 3.15272 5.38485 0 10.0004 0Z" fill="#707D8B"/>
</svg>
