<svg width="1024" height="639" viewBox="0 0 1024 639" fill="none" xmlns="http://www.w3.org/2000/svg">
<path d="M33.5127 0V596.152M1024 596.152H33.5127M33.5127 596.152V639M33.5127 596.152H0" stroke="#3683FC" stroke-opacity="0.3" stroke-width="3"/>
<path d="M34 396L251.456 261.745C258.915 257.14 268.504 257.929 275.11 263.691L436.433 404.42C444.948 411.848 457.921 410.752 465.069 402.002L669.008 152.352C676.846 142.758 691.431 142.524 699.572 151.862L817.661 287.318C819.208 289.092 821.056 290.579 823.12 291.711L929.211 349.89C937.754 354.575 948.43 352.421 954.489 344.791L998 290" stroke="#3683FC" stroke-width="6"/>
<path d="M998 437L780.544 302.745C773.085 298.14 763.496 298.929 756.89 304.691L595.567 445.42C587.052 452.848 574.079 451.752 566.931 443.002L362.992 193.352C355.154 183.758 340.569 183.524 332.428 192.862L214.339 328.318C212.792 330.092 210.944 331.579 208.88 332.711L102.789 390.89C94.2461 395.575 83.5699 393.421 77.5106 385.791L34 331" stroke="#3683FC" stroke-opacity="0.3" stroke-width="4" stroke-linejoin="round" stroke-dasharray="18 18"/>
</svg>
